<mxfile host="app.diagrams.net" modified="2024-04-22T17:52:21.751Z" agent="Mozilla/5.0 (Windows NT 10.0; Win64; x64) AppleWebKit/537.36 (KHTML, like Gecko) Chrome/96.0.4664.45 Safari/537.36 Edg/96.0.1054.29" etag="X8T57Xskswl1_9Kqa_hG" version="24.2.7" type="device">
  <diagram name="Page-1" id="Bw8waUVS4aif2_wFkWzH">
    <mxGraphModel dx="1009" dy="1689" grid="1" gridSize="10" guides="1" tooltips="1" connect="1" arrows="1" fold="1" page="1" pageScale="1" pageWidth="850" pageHeight="1100" math="0" shadow="0">
      <root>
        <mxCell id="0" />
        <mxCell id="1" parent="0" />
        <mxCell id="YQdS9dg_FT5luhaqbMrs-1" value="&lt;u&gt;id&lt;/u&gt;" style="ellipse;whiteSpace=wrap;html=1;" parent="1" vertex="1">
          <mxGeometry x="680" y="-590" width="120" height="60" as="geometry" />
        </mxCell>
        <mxCell id="YQdS9dg_FT5luhaqbMrs-2" value="title" style="ellipse;whiteSpace=wrap;html=1;" parent="1" vertex="1">
          <mxGeometry x="680" y="-490" width="120" height="60" as="geometry" />
        </mxCell>
        <mxCell id="YQdS9dg_FT5luhaqbMrs-3" value="prod_date" style="ellipse;whiteSpace=wrap;html=1;" parent="1" vertex="1">
          <mxGeometry x="680" y="-390" width="120" height="60" as="geometry" />
        </mxCell>
        <mxCell id="YQdS9dg_FT5luhaqbMrs-4" value="movie" style="rounded=0;whiteSpace=wrap;html=1;" parent="1" vertex="1">
          <mxGeometry x="440" y="-490" width="120" height="60" as="geometry" />
        </mxCell>
        <mxCell id="YQdS9dg_FT5luhaqbMrs-5" value="" style="endArrow=none;html=1;rounded=0;entryX=0;entryY=0.5;entryDx=0;entryDy=0;exitX=1;exitY=0.5;exitDx=0;exitDy=0;" parent="1" source="YQdS9dg_FT5luhaqbMrs-4" target="YQdS9dg_FT5luhaqbMrs-2" edge="1">
          <mxGeometry width="50" height="50" relative="1" as="geometry">
            <mxPoint x="630" y="-430" as="sourcePoint" />
            <mxPoint x="680" y="-480" as="targetPoint" />
          </mxGeometry>
        </mxCell>
        <mxCell id="YQdS9dg_FT5luhaqbMrs-7" value="" style="endArrow=none;html=1;rounded=0;exitX=1;exitY=0.25;exitDx=0;exitDy=0;entryX=0;entryY=1;entryDx=0;entryDy=0;" parent="1" source="YQdS9dg_FT5luhaqbMrs-4" target="YQdS9dg_FT5luhaqbMrs-1" edge="1">
          <mxGeometry width="50" height="50" relative="1" as="geometry">
            <mxPoint x="630" y="-430" as="sourcePoint" />
            <mxPoint x="660" y="-540" as="targetPoint" />
          </mxGeometry>
        </mxCell>
        <mxCell id="YQdS9dg_FT5luhaqbMrs-9" value="" style="endArrow=none;html=1;rounded=0;entryX=0;entryY=0;entryDx=0;entryDy=0;exitX=1;exitY=0.75;exitDx=0;exitDy=0;" parent="1" source="YQdS9dg_FT5luhaqbMrs-4" target="YQdS9dg_FT5luhaqbMrs-3" edge="1">
          <mxGeometry width="50" height="50" relative="1" as="geometry">
            <mxPoint x="630" y="-360" as="sourcePoint" />
            <mxPoint x="680" y="-410" as="targetPoint" />
          </mxGeometry>
        </mxCell>
        <mxCell id="YQdS9dg_FT5luhaqbMrs-10" value="&lt;u&gt;id&lt;/u&gt;" style="ellipse;whiteSpace=wrap;html=1;" parent="1" vertex="1">
          <mxGeometry x="60" y="-410" width="120" height="60" as="geometry" />
        </mxCell>
        <mxCell id="YQdS9dg_FT5luhaqbMrs-11" value="name" style="ellipse;whiteSpace=wrap;html=1;" parent="1" vertex="1">
          <mxGeometry x="60" y="-310" width="120" height="60" as="geometry" />
        </mxCell>
        <mxCell id="YQdS9dg_FT5luhaqbMrs-12" value="surname" style="ellipse;whiteSpace=wrap;html=1;" parent="1" vertex="1">
          <mxGeometry x="60" y="-210" width="120" height="60" as="geometry" />
        </mxCell>
        <mxCell id="YQdS9dg_FT5luhaqbMrs-13" value="actor" style="rounded=0;whiteSpace=wrap;html=1;" parent="1" vertex="1">
          <mxGeometry x="210" y="-310" width="120" height="60" as="geometry" />
        </mxCell>
        <mxCell id="YQdS9dg_FT5luhaqbMrs-14" value="" style="endArrow=none;html=1;rounded=0;entryX=1;entryY=0.5;entryDx=0;entryDy=0;" parent="1" target="YQdS9dg_FT5luhaqbMrs-11" edge="1">
          <mxGeometry width="50" height="50" relative="1" as="geometry">
            <mxPoint x="210" y="-280" as="sourcePoint" />
            <mxPoint x="60" y="-300" as="targetPoint" />
          </mxGeometry>
        </mxCell>
        <mxCell id="YQdS9dg_FT5luhaqbMrs-15" value="" style="endArrow=none;html=1;rounded=0;entryX=1;entryY=1;entryDx=0;entryDy=0;exitX=0;exitY=0.25;exitDx=0;exitDy=0;" parent="1" source="YQdS9dg_FT5luhaqbMrs-13" target="YQdS9dg_FT5luhaqbMrs-10" edge="1">
          <mxGeometry width="50" height="50" relative="1" as="geometry">
            <mxPoint x="10" y="-250" as="sourcePoint" />
            <mxPoint x="60" y="-300" as="targetPoint" />
          </mxGeometry>
        </mxCell>
        <mxCell id="YQdS9dg_FT5luhaqbMrs-16" value="" style="endArrow=none;html=1;rounded=0;entryX=1;entryY=0;entryDx=0;entryDy=0;exitX=0;exitY=0.75;exitDx=0;exitDy=0;" parent="1" source="YQdS9dg_FT5luhaqbMrs-13" target="YQdS9dg_FT5luhaqbMrs-12" edge="1">
          <mxGeometry width="50" height="50" relative="1" as="geometry">
            <mxPoint x="10" y="-180" as="sourcePoint" />
            <mxPoint x="60" y="-230" as="targetPoint" />
          </mxGeometry>
        </mxCell>
        <mxCell id="YQdS9dg_FT5luhaqbMrs-17" value="dob" style="ellipse;whiteSpace=wrap;html=1;" parent="1" vertex="1">
          <mxGeometry x="210" y="-210" width="120" height="60" as="geometry" />
        </mxCell>
        <mxCell id="YQdS9dg_FT5luhaqbMrs-18" value="" style="endArrow=none;html=1;rounded=0;entryX=0.5;entryY=1;entryDx=0;entryDy=0;exitX=0.5;exitY=0;exitDx=0;exitDy=0;" parent="1" source="YQdS9dg_FT5luhaqbMrs-17" target="YQdS9dg_FT5luhaqbMrs-13" edge="1">
          <mxGeometry width="50" height="50" relative="1" as="geometry">
            <mxPoint x="250" y="-190" as="sourcePoint" />
            <mxPoint x="300" y="-240" as="targetPoint" />
          </mxGeometry>
        </mxCell>
        <mxCell id="YQdS9dg_FT5luhaqbMrs-28" value="&lt;u&gt;id&lt;/u&gt;" style="ellipse;whiteSpace=wrap;html=1;" parent="1" vertex="1">
          <mxGeometry x="680" y="-890" width="120" height="60" as="geometry" />
        </mxCell>
        <mxCell id="YQdS9dg_FT5luhaqbMrs-29" value="name" style="ellipse;whiteSpace=wrap;html=1;" parent="1" vertex="1">
          <mxGeometry x="680" y="-790" width="120" height="60" as="geometry" />
        </mxCell>
        <mxCell id="YQdS9dg_FT5luhaqbMrs-30" value="surname" style="ellipse;whiteSpace=wrap;html=1;" parent="1" vertex="1">
          <mxGeometry x="680" y="-690" width="120" height="60" as="geometry" />
        </mxCell>
        <mxCell id="YQdS9dg_FT5luhaqbMrs-31" value="director" style="rounded=0;whiteSpace=wrap;html=1;" parent="1" vertex="1">
          <mxGeometry x="440" y="-790" width="120" height="60" as="geometry" />
        </mxCell>
        <mxCell id="YQdS9dg_FT5luhaqbMrs-32" value="" style="endArrow=none;html=1;rounded=0;entryX=0;entryY=0.5;entryDx=0;entryDy=0;exitX=1;exitY=0.5;exitDx=0;exitDy=0;" parent="1" source="YQdS9dg_FT5luhaqbMrs-31" target="YQdS9dg_FT5luhaqbMrs-29" edge="1">
          <mxGeometry width="50" height="50" relative="1" as="geometry">
            <mxPoint x="630" y="-730" as="sourcePoint" />
            <mxPoint x="680" y="-780" as="targetPoint" />
          </mxGeometry>
        </mxCell>
        <mxCell id="YQdS9dg_FT5luhaqbMrs-33" value="" style="endArrow=none;html=1;rounded=0;entryX=0;entryY=1;entryDx=0;entryDy=0;exitX=1;exitY=0.25;exitDx=0;exitDy=0;" parent="1" source="YQdS9dg_FT5luhaqbMrs-31" target="YQdS9dg_FT5luhaqbMrs-28" edge="1">
          <mxGeometry width="50" height="50" relative="1" as="geometry">
            <mxPoint x="630" y="-730" as="sourcePoint" />
            <mxPoint x="680" y="-780" as="targetPoint" />
          </mxGeometry>
        </mxCell>
        <mxCell id="YQdS9dg_FT5luhaqbMrs-34" value="" style="endArrow=none;html=1;rounded=0;entryX=0;entryY=0;entryDx=0;entryDy=0;exitX=1;exitY=0.75;exitDx=0;exitDy=0;" parent="1" source="YQdS9dg_FT5luhaqbMrs-31" target="YQdS9dg_FT5luhaqbMrs-30" edge="1">
          <mxGeometry width="50" height="50" relative="1" as="geometry">
            <mxPoint x="630" y="-660" as="sourcePoint" />
            <mxPoint x="680" y="-710" as="targetPoint" />
          </mxGeometry>
        </mxCell>
        <mxCell id="YQdS9dg_FT5luhaqbMrs-35" value="dob" style="ellipse;whiteSpace=wrap;html=1;" parent="1" vertex="1">
          <mxGeometry x="520" y="-890" width="120" height="60" as="geometry" />
        </mxCell>
        <mxCell id="YQdS9dg_FT5luhaqbMrs-36" value="" style="endArrow=none;html=1;rounded=0;entryX=0.5;entryY=0;entryDx=0;entryDy=0;exitX=0;exitY=1;exitDx=0;exitDy=0;" parent="1" source="YQdS9dg_FT5luhaqbMrs-35" target="YQdS9dg_FT5luhaqbMrs-31" edge="1">
          <mxGeometry width="50" height="50" relative="1" as="geometry">
            <mxPoint x="560" y="-670" as="sourcePoint" />
            <mxPoint x="610" y="-720" as="targetPoint" />
          </mxGeometry>
        </mxCell>
        <mxCell id="YQdS9dg_FT5luhaqbMrs-37" value="&lt;u&gt;id&lt;/u&gt;" style="ellipse;whiteSpace=wrap;html=1;" parent="1" vertex="1">
          <mxGeometry x="680" y="-290" width="120" height="60" as="geometry" />
        </mxCell>
        <mxCell id="YQdS9dg_FT5luhaqbMrs-38" value="name" style="ellipse;whiteSpace=wrap;html=1;" parent="1" vertex="1">
          <mxGeometry x="680" y="-190" width="120" height="60" as="geometry" />
        </mxCell>
        <mxCell id="YQdS9dg_FT5luhaqbMrs-40" value="category" style="rounded=0;whiteSpace=wrap;html=1;" parent="1" vertex="1">
          <mxGeometry x="440" y="-240" width="120" height="60" as="geometry" />
        </mxCell>
        <mxCell id="YQdS9dg_FT5luhaqbMrs-41" value="" style="endArrow=none;html=1;rounded=0;entryX=0;entryY=0.5;entryDx=0;entryDy=0;exitX=1;exitY=0.75;exitDx=0;exitDy=0;" parent="1" source="YQdS9dg_FT5luhaqbMrs-40" target="YQdS9dg_FT5luhaqbMrs-38" edge="1">
          <mxGeometry width="50" height="50" relative="1" as="geometry">
            <mxPoint x="660" y="-200" as="sourcePoint" />
            <mxPoint x="680" y="-230" as="targetPoint" />
          </mxGeometry>
        </mxCell>
        <mxCell id="YQdS9dg_FT5luhaqbMrs-42" value="" style="endArrow=none;html=1;rounded=0;entryX=0;entryY=0.5;entryDx=0;entryDy=0;exitX=1;exitY=0.25;exitDx=0;exitDy=0;" parent="1" source="YQdS9dg_FT5luhaqbMrs-40" target="YQdS9dg_FT5luhaqbMrs-37" edge="1">
          <mxGeometry width="50" height="50" relative="1" as="geometry">
            <mxPoint x="630" y="-180" as="sourcePoint" />
            <mxPoint x="680" y="-230" as="targetPoint" />
          </mxGeometry>
        </mxCell>
        <mxCell id="YQdS9dg_FT5luhaqbMrs-46" value="belongs to" style="rhombus;whiteSpace=wrap;html=1;" parent="1" vertex="1">
          <mxGeometry x="520" y="-390" width="120" height="100" as="geometry" />
        </mxCell>
        <mxCell id="YQdS9dg_FT5luhaqbMrs-50" value="" style="endArrow=classic;html=1;rounded=0;exitX=0.75;exitY=1;exitDx=0;exitDy=0;entryX=0;entryY=0;entryDx=0;entryDy=0;" parent="1" source="YQdS9dg_FT5luhaqbMrs-4" target="YQdS9dg_FT5luhaqbMrs-46" edge="1">
          <mxGeometry width="50" height="50" relative="1" as="geometry">
            <mxPoint x="570" y="-410" as="sourcePoint" />
            <mxPoint x="470" y="-370" as="targetPoint" />
          </mxGeometry>
        </mxCell>
        <mxCell id="g5aevCp6cgOxp4JR6z89-26" value="(N,1)" style="edgeLabel;html=1;align=center;verticalAlign=middle;resizable=0;points=[];" vertex="1" connectable="0" parent="YQdS9dg_FT5luhaqbMrs-50">
          <mxGeometry x="-0.1654" y="-1" relative="1" as="geometry">
            <mxPoint as="offset" />
          </mxGeometry>
        </mxCell>
        <mxCell id="YQdS9dg_FT5luhaqbMrs-51" value="" style="endArrow=classic;html=1;rounded=0;entryX=0.5;entryY=0;entryDx=0;entryDy=0;exitX=0;exitY=1;exitDx=0;exitDy=0;" parent="1" source="YQdS9dg_FT5luhaqbMrs-46" target="YQdS9dg_FT5luhaqbMrs-40" edge="1">
          <mxGeometry width="50" height="50" relative="1" as="geometry">
            <mxPoint x="550" y="-260" as="sourcePoint" />
            <mxPoint x="600" y="-310" as="targetPoint" />
          </mxGeometry>
        </mxCell>
        <mxCell id="g5aevCp6cgOxp4JR6z89-27" value="(N,1)" style="edgeLabel;html=1;align=center;verticalAlign=middle;resizable=0;points=[];" vertex="1" connectable="0" parent="YQdS9dg_FT5luhaqbMrs-51">
          <mxGeometry x="-0.0821" y="1" relative="1" as="geometry">
            <mxPoint as="offset" />
          </mxGeometry>
        </mxCell>
        <mxCell id="YQdS9dg_FT5luhaqbMrs-52" value="directed" style="rhombus;whiteSpace=wrap;html=1;" parent="1" vertex="1">
          <mxGeometry x="520" y="-660" width="120" height="100" as="geometry" />
        </mxCell>
        <mxCell id="YQdS9dg_FT5luhaqbMrs-53" value="" style="endArrow=classic;html=1;rounded=0;entryX=0;entryY=0;entryDx=0;entryDy=0;exitX=0.5;exitY=1;exitDx=0;exitDy=0;" parent="1" source="YQdS9dg_FT5luhaqbMrs-31" target="YQdS9dg_FT5luhaqbMrs-52" edge="1">
          <mxGeometry width="50" height="50" relative="1" as="geometry">
            <mxPoint x="590" y="-690" as="sourcePoint" />
            <mxPoint x="470" y="-720" as="targetPoint" />
          </mxGeometry>
        </mxCell>
        <mxCell id="g5aevCp6cgOxp4JR6z89-25" value="(1,N)" style="edgeLabel;html=1;align=center;verticalAlign=middle;resizable=0;points=[];" vertex="1" connectable="0" parent="YQdS9dg_FT5luhaqbMrs-53">
          <mxGeometry x="-0.1024" y="1" relative="1" as="geometry">
            <mxPoint as="offset" />
          </mxGeometry>
        </mxCell>
        <mxCell id="YQdS9dg_FT5luhaqbMrs-54" value="" style="endArrow=classic;html=1;rounded=0;entryX=0.75;entryY=0;entryDx=0;entryDy=0;exitX=0;exitY=1;exitDx=0;exitDy=0;" parent="1" source="YQdS9dg_FT5luhaqbMrs-52" target="YQdS9dg_FT5luhaqbMrs-4" edge="1">
          <mxGeometry width="50" height="50" relative="1" as="geometry">
            <mxPoint x="410" y="-410" as="sourcePoint" />
            <mxPoint x="460" y="-460" as="targetPoint" />
          </mxGeometry>
        </mxCell>
        <mxCell id="g5aevCp6cgOxp4JR6z89-24" value="(1,N)" style="edgeLabel;html=1;align=center;verticalAlign=middle;resizable=0;points=[];" vertex="1" connectable="0" parent="YQdS9dg_FT5luhaqbMrs-54">
          <mxGeometry x="-0.0607" relative="1" as="geometry">
            <mxPoint as="offset" />
          </mxGeometry>
        </mxCell>
        <mxCell id="g5aevCp6cgOxp4JR6z89-1" value="&lt;u&gt;id&lt;/u&gt;" style="ellipse;whiteSpace=wrap;html=1;" vertex="1" parent="1">
          <mxGeometry x="50" y="-740" width="120" height="60" as="geometry" />
        </mxCell>
        <mxCell id="g5aevCp6cgOxp4JR6z89-2" value="name" style="ellipse;whiteSpace=wrap;html=1;" vertex="1" parent="1">
          <mxGeometry x="50" y="-640" width="120" height="60" as="geometry" />
        </mxCell>
        <mxCell id="g5aevCp6cgOxp4JR6z89-3" value="surname" style="ellipse;whiteSpace=wrap;html=1;" vertex="1" parent="1">
          <mxGeometry x="50" y="-540" width="120" height="60" as="geometry" />
        </mxCell>
        <mxCell id="g5aevCp6cgOxp4JR6z89-4" value="screenwriter" style="rounded=0;whiteSpace=wrap;html=1;" vertex="1" parent="1">
          <mxGeometry x="200" y="-640" width="120" height="60" as="geometry" />
        </mxCell>
        <mxCell id="g5aevCp6cgOxp4JR6z89-5" value="" style="endArrow=none;html=1;rounded=0;entryX=1;entryY=0.5;entryDx=0;entryDy=0;" edge="1" parent="1" target="g5aevCp6cgOxp4JR6z89-2">
          <mxGeometry width="50" height="50" relative="1" as="geometry">
            <mxPoint x="200" y="-610" as="sourcePoint" />
            <mxPoint x="50" y="-630" as="targetPoint" />
          </mxGeometry>
        </mxCell>
        <mxCell id="g5aevCp6cgOxp4JR6z89-6" value="" style="endArrow=none;html=1;rounded=0;entryX=1;entryY=1;entryDx=0;entryDy=0;exitX=0;exitY=0.25;exitDx=0;exitDy=0;" edge="1" parent="1" source="g5aevCp6cgOxp4JR6z89-4" target="g5aevCp6cgOxp4JR6z89-1">
          <mxGeometry width="50" height="50" relative="1" as="geometry">
            <mxPoint y="-580" as="sourcePoint" />
            <mxPoint x="50" y="-630" as="targetPoint" />
          </mxGeometry>
        </mxCell>
        <mxCell id="g5aevCp6cgOxp4JR6z89-7" value="" style="endArrow=none;html=1;rounded=0;entryX=1;entryY=0;entryDx=0;entryDy=0;exitX=0;exitY=0.75;exitDx=0;exitDy=0;" edge="1" parent="1" source="g5aevCp6cgOxp4JR6z89-4" target="g5aevCp6cgOxp4JR6z89-3">
          <mxGeometry width="50" height="50" relative="1" as="geometry">
            <mxPoint y="-510" as="sourcePoint" />
            <mxPoint x="50" y="-560" as="targetPoint" />
          </mxGeometry>
        </mxCell>
        <mxCell id="g5aevCp6cgOxp4JR6z89-8" value="dob" style="ellipse;whiteSpace=wrap;html=1;" vertex="1" parent="1">
          <mxGeometry x="200" y="-540" width="120" height="60" as="geometry" />
        </mxCell>
        <mxCell id="g5aevCp6cgOxp4JR6z89-9" value="" style="endArrow=none;html=1;rounded=0;entryX=0.5;entryY=1;entryDx=0;entryDy=0;exitX=0.5;exitY=0;exitDx=0;exitDy=0;" edge="1" parent="1" source="g5aevCp6cgOxp4JR6z89-8" target="g5aevCp6cgOxp4JR6z89-4">
          <mxGeometry width="50" height="50" relative="1" as="geometry">
            <mxPoint x="240" y="-520" as="sourcePoint" />
            <mxPoint x="290" y="-570" as="targetPoint" />
          </mxGeometry>
        </mxCell>
        <mxCell id="g5aevCp6cgOxp4JR6z89-11" value="played on" style="rhombus;whiteSpace=wrap;html=1;" vertex="1" parent="1">
          <mxGeometry x="360" y="-390" width="120" height="100" as="geometry" />
        </mxCell>
        <mxCell id="g5aevCp6cgOxp4JR6z89-13" value="" style="endArrow=classic;html=1;rounded=0;exitX=1;exitY=0.5;exitDx=0;exitDy=0;entryX=0;entryY=1;entryDx=0;entryDy=0;" edge="1" parent="1" source="YQdS9dg_FT5luhaqbMrs-13" target="g5aevCp6cgOxp4JR6z89-11">
          <mxGeometry width="50" height="50" relative="1" as="geometry">
            <mxPoint x="320" y="-330" as="sourcePoint" />
            <mxPoint x="370" y="-380" as="targetPoint" />
          </mxGeometry>
        </mxCell>
        <mxCell id="g5aevCp6cgOxp4JR6z89-20" value="(N,N)" style="edgeLabel;html=1;align=center;verticalAlign=middle;resizable=0;points=[];" vertex="1" connectable="0" parent="g5aevCp6cgOxp4JR6z89-13">
          <mxGeometry x="0.009" relative="1" as="geometry">
            <mxPoint as="offset" />
          </mxGeometry>
        </mxCell>
        <mxCell id="g5aevCp6cgOxp4JR6z89-14" value="" style="endArrow=classic;html=1;rounded=0;entryX=0.25;entryY=1;entryDx=0;entryDy=0;" edge="1" parent="1" source="g5aevCp6cgOxp4JR6z89-11" target="YQdS9dg_FT5luhaqbMrs-4">
          <mxGeometry width="50" height="50" relative="1" as="geometry">
            <mxPoint x="450" y="-360" as="sourcePoint" />
            <mxPoint x="510" y="-390" as="targetPoint" />
          </mxGeometry>
        </mxCell>
        <mxCell id="g5aevCp6cgOxp4JR6z89-22" value="(N,N)" style="edgeLabel;html=1;align=center;verticalAlign=middle;resizable=0;points=[];" vertex="1" connectable="0" parent="g5aevCp6cgOxp4JR6z89-14">
          <mxGeometry x="-0.1544" y="-2" relative="1" as="geometry">
            <mxPoint as="offset" />
          </mxGeometry>
        </mxCell>
        <mxCell id="g5aevCp6cgOxp4JR6z89-15" value="wrote" style="rhombus;whiteSpace=wrap;html=1;" vertex="1" parent="1">
          <mxGeometry x="360" y="-660" width="120" height="100" as="geometry" />
        </mxCell>
        <mxCell id="g5aevCp6cgOxp4JR6z89-17" value="" style="endArrow=classic;html=1;rounded=0;exitX=1;exitY=0.5;exitDx=0;exitDy=0;entryX=0;entryY=0.5;entryDx=0;entryDy=0;" edge="1" parent="1" source="g5aevCp6cgOxp4JR6z89-4" target="g5aevCp6cgOxp4JR6z89-15">
          <mxGeometry width="50" height="50" relative="1" as="geometry">
            <mxPoint x="340" y="-520" as="sourcePoint" />
            <mxPoint x="390" y="-570" as="targetPoint" />
          </mxGeometry>
        </mxCell>
        <mxCell id="g5aevCp6cgOxp4JR6z89-21" value="(N, N)" style="edgeLabel;html=1;align=center;verticalAlign=middle;resizable=0;points=[];" vertex="1" connectable="0" parent="g5aevCp6cgOxp4JR6z89-17">
          <mxGeometry x="-0.1583" y="1" relative="1" as="geometry">
            <mxPoint as="offset" />
          </mxGeometry>
        </mxCell>
        <mxCell id="g5aevCp6cgOxp4JR6z89-18" value="" style="endArrow=classic;html=1;rounded=0;exitX=1;exitY=1;exitDx=0;exitDy=0;entryX=0.25;entryY=0;entryDx=0;entryDy=0;" edge="1" parent="1" source="g5aevCp6cgOxp4JR6z89-15" target="YQdS9dg_FT5luhaqbMrs-4">
          <mxGeometry width="50" height="50" relative="1" as="geometry">
            <mxPoint x="410" y="-500" as="sourcePoint" />
            <mxPoint x="460" y="-550" as="targetPoint" />
          </mxGeometry>
        </mxCell>
        <mxCell id="g5aevCp6cgOxp4JR6z89-23" value="(N,N)" style="edgeLabel;html=1;align=center;verticalAlign=middle;resizable=0;points=[];" vertex="1" connectable="0" parent="g5aevCp6cgOxp4JR6z89-18">
          <mxGeometry x="-0.0564" y="1" relative="1" as="geometry">
            <mxPoint as="offset" />
          </mxGeometry>
        </mxCell>
      </root>
    </mxGraphModel>
  </diagram>
</mxfile>
